Start = 10.000000, duration = 60, magnitude = 500.000000, direction = 180
datacolumns 10
datarows 220
range 18.81667074 18.9300738
endheader
time	ground_force1_vx	ground_force1_vy	ground_force1_vz	ground_force1_px	ground_force1_py	ground_force1_pz	ground_torque1_x	ground_torque1_y	ground_torque1_z
18.81667074	-362.4295689	4.438482115e-14	0	0	0	0	0	0	0
18.81669904	-362.4467594	4.438692637e-14	0	0	0	0	0	0	0
18.81684055	-362.5327043	4.439745159e-14	0	0	0	0	0	0	0
18.81754808	-362.9620778	4.445003468e-14	0	0	0	0	0	0	0
18.81825561	-363.3908863	4.450254857e-14	0	0	0	0	0	0	0
18.81896315	-363.819135	4.455499392e-14	0	0	0	0	0	0	0
18.81967068	-364.2468112	4.460736915e-14	0	0	0	0	0	0	0
18.82	-364.4456799	4.463172353e-14	0	0	0	0	0	0	0
18.82000173	-364.4467243	4.463185143e-14	0	0	0	0	0	0	0
18.82000346	-364.4477686	4.463197933e-14	0	0	0	0	0	0	0
18.82001212	-364.4529965	4.463261956e-14	0	0	0	0	0	0	0
18.82005542	-364.4791346	4.463582056e-14	0	0	0	0	0	0	0
18.82027189	-364.6097752	4.465181942e-14	0	0	0	0	0	0	0
18.82065985	-364.8437779	4.468047647e-14	0	0	0	0	0	0	0
18.8210478	-365.0776037	4.470911188e-14	0	0	0	0	0	0	0
18.82156573	-365.3895048	4.474730875e-14	0	0	0	0	0	0	0
18.82208367	-365.7011071	4.478546903e-14	0	0	0	0	0	0	0
18.82272646	-366.0873972	4.483277592e-14	0	0	0	0	0	0	0
18.82349913	-366.5511171	4.488956523e-14	0	0	0	0	0	0	0
18.82450211	-367.1520429	4.496315741e-14	0	0	0	0	0	0	0
18.82524093	-367.5939651	4.501727728e-14	0	0	0	0	0	0	0
18.82597976	-368.0352693	4.507132145e-14	0	0	0	0	0	0	0
18.82671858	-368.4759426	4.512528837e-14	0	0	0	0	0	0	0
18.82731659	-368.832171	4.516891377e-14	0	0	0	0	0	0	0
18.82808088	-369.2868535	4.522459631e-14	0	0	0	0	0	0	0
18.82884516	-369.7408591	4.528019596e-14	0	0	0	0	0	0	0
18.82960945	-370.1941989	4.533571408e-14	0	0	0	0	0	0	0
18.83	-370.4255947	4.536405188e-14	0	0	0	0	0	0	0
18.83000138	-370.426412	4.536415198e-14	0	0	0	0	0	0	0
18.83000276	-370.4272293	4.536425207e-14	0	0	0	0	0	0	0
18.83000965	-370.4313099	4.53647518e-14	0	0	0	0	0	0	0
18.83004414	-370.451736	4.536725327e-14	0	0	0	0	0	0	0
18.83021654	-370.5538161	4.537975448e-14	0	0	0	0	0	0	0
18.83063685	-370.802543	4.541021474e-14	0	0	0	0	0	0	0
18.83114307	-371.1018385	4.544686787e-14	0	0	0	0	0	0	0
18.83179701	-371.4880335	4.549416311e-14	0	0	0	0	0	0	0
18.83262283	-371.975029	4.555380286e-14	0	0	0	0	0	0	0
18.83345925	-372.4674712	4.561410964e-14	0	0	0	0	0	0	0
18.83429566	-372.9590972	4.567431646e-14	0	0	0	0	0	0	0
18.83513207	-373.4499116	4.573442389e-14	0	0	0	0	0	0	0
18.83587068	-373.8826604	4.578742034e-14	0	0	0	0	0	0	0
18.83660929	-374.3147749	4.584033909e-14	0	0	0	0	0	0	0
18.83734789	-374.7462484	4.589317936e-14	0	0	0	0	0	0	0
18.8380865	-375.1770919	4.594594247e-14	0	0	0	0	0	0	0
18.83882511	-375.6072988	4.599862762e-14	0	0	0	0	0	0	0
18.83956372	-376.0368685	4.605123473e-14	0	0	0	0	0	0	0
18.84	-376.2903057	4.608227185e-14	0	0	0	0	0	0	0
18.84000177	-376.2913335	4.608239771e-14	0	0	0	0	0	0	0
18.84000354	-376.2923612	4.608252357e-14	0	0	0	0	0	0	0
18.84001239	-376.2974999	4.608315288e-14	0	0	0	0	0	0	0
18.84005666	-376.3232035	4.608630066e-14	0	0	0	0	0	0	0
18.84027797	-376.4516637	4.61020325e-14	0	0	0	0	0	0	0
18.84099419	-376.8670033	4.615289693e-14	0	0	0	0	0	0	0
18.84159329	-377.2139626	4.619538719e-14	0	0	0	0	0	0	0
18.8421924	-377.5605066	4.623782659e-14	0	0	0	0	0	0	0
18.84303374	-378.0464524	4.629733779e-14	0	0	0	0	0	0	0
18.8438512	-378.5178083	4.635506224e-14	0	0	0	0	0	0	0
18.84466867	-378.9883833	4.641269105e-14	0	0	0	0	0	0	0
18.84548613	-379.4581648	4.64702227e-14	0	0	0	0	0	0	0
18.84630359	-379.9271578	4.652765777e-14	0	0	0	0	0	0	0
18.84712106	-380.3953668	4.658499684e-14	0	0	0	0	0	0	0
18.84793852	-380.8627795	4.664223839e-14	0	0	0	0	0	0	0
18.84875598	-381.3294007	4.6699383e-14	0	0	0	0	0	0	0
18.8495627	-381.7891143	4.675568168e-14	0	0	0	0	0	0	0
18.85	-382.0379891	4.678616005e-14	0	0	0	0	0	0	0
18.85000136	-382.0387627	4.678625479e-14	0	0	0	0	0	0	0
18.85000273	-382.0395421	4.678635024e-14	0	0	0	0	0	0	0
18.85000955	-382.0434216	4.678682534e-14	0	0	0	0	0	0	0
18.85004368	-382.0628356	4.678920287e-14	0	0	0	0	0	0	0
18.85021429	-382.1598622	4.68010852e-14	0	0	0	0	0	0	0
18.85086185	-382.5278171	4.684614668e-14	0	0	0	0	0	0	0
18.85150941	-382.8952731	4.689114706e-14	0	0	0	0	0	0	0
18.85215696	-383.2622241	4.693608559e-14	0	0	0	0	0	0	0
18.85307703	-383.7827458	4.699983113e-14	0	0	0	0	0	0	0
18.85399711	-384.3022628	4.706345361e-14	0	0	0	0	0	0	0
18.85477307	-384.739617	4.711701404e-14	0	0	0	0	0	0	0
18.85554904	-385.1762563	4.717048694e-14	0	0	0	0	0	0	0
18.85632501	-385.6121743	4.722387149e-14	0	0	0	0	0	0	0
18.8569282	-385.9505305	4.726530818e-14	0	0	0	0	0	0	0
18.85753139	-386.2884501	4.730669139e-14	0	0	0	0	0	0	0
18.85834723	-386.744805	4.736257875e-14	0	0	0	0	0	0	0
18.85916307	-387.2003594	4.741836807e-14	0	0	0	0	0	0	0
18.8599789	-387.6551066	4.747405855e-14	0	0	0	0	0	0	0
18.86	-387.6668572	4.747549758e-14	0	0	0	0	0	0	0
18.86000142	-387.667648	4.747559443e-14	0	0	0	0	0	0	0
18.86000285	-387.6684444	4.747569195e-14	0	0	0	0	0	0	0
18.86000996	-387.6724038	4.747617684e-14	0	0	0	0	0	0	0
18.86004554	-387.6922166	4.747860322e-14	0	0	0	0	0	0	0
18.86022341	-387.7912414	4.749073025e-14	0	0	0	0	0	0	0
18.86061879	-388.0112227	4.751767019e-14	0	0	0	0	0	0	0
18.86101416	-388.2310098	4.754458635e-14	0	0	0	0	0	0	0
18.86160501	-388.5591129	4.758476739e-14	0	0	0	0	0	0	0
18.86231691	-388.9538755	4.763311186e-14	0	0	0	0	0	0	0
18.86320448	-389.4451918	4.769328076e-14	0	0	0	0	0	0	0
18.86409205	-389.935554	4.77533328e-14	0	0	0	0	0	0	0
18.86476788	-390.308294	4.779898029e-14	0	0	0	0	0	0	0
18.8654437	-390.6804741	4.78445592e-14	0	0	0	0	0	0	0
18.86611952	-391.0520992	4.789007015e-14	0	0	0	0	0	0	0
18.86679534	-391.4231688	4.793551308e-14	0	0	0	0	0	0	0
18.86760671	-391.8679297	4.798998058e-14	0	0	0	0	0	0	0
18.86841808	-392.3118884	4.804434983e-14	0	0	0	0	0	0	0
18.86922945	-392.7550437	4.809862072e-14	0	0	0	0	0	0	0
18.87	-393.1751595	4.815007006e-14	0	0	0	0	0	0	0
18.87000129	-393.1758622	4.815015612e-14	0	0	0	0	0	0	0
18.87000258	-393.176565	4.815024218e-14	0	0	0	0	0	0	0
18.87000903	-393.1800785	4.815067247e-14	0	0	0	0	0	0	0
18.8700413	-393.1976564	4.815282514e-14	0	0	0	0	0	0	0
18.87020264	-393.2855215	4.81635855e-14	0	0	0	0	0	0	0
18.87071266	-393.5630665	4.819757497e-14	0	0	0	0	0	0	0
18.87122269	-393.8402986	4.823152611e-14	0	0	0	0	0	0	0
18.87192312	-394.2205054	4.827808801e-14	0	0	0	0	0	0	0
18.87283584	-394.7150444	4.833865157e-14	0	0	0	0	0	0	0
18.87374857	-395.2085662	4.839909056e-14	0	0	0	0	0	0	0
18.87452003	-395.6249036	4.845007718e-14	0	0	0	0	0	0	0
18.8752915	-396.040514	4.850097478e-14	0	0	0	0	0	0	0
18.87606296	-396.4553859	4.855178194e-14	0	0	0	0	0	0	0
18.87683443	-396.8695294	4.860249988e-14	0	0	0	0	0	0	0
18.8776059	-397.2829382	4.865312787e-14	0	0	0	0	0	0	0
18.87803658	-397.5134076	4.868135222e-14	0	0	0	0	0	0	0
18.87846726	-397.7436476	4.87095485e-14	0	0	0	0	0	0	0
18.879267	-398.1705772	4.876183228e-14	0	0	0	0	0	0	0
18.88	-398.5611829	4.880966769e-14	0	0	0	0	0	0	0
18.88000143	-398.5619443	4.880976093e-14	0	0	0	0	0	0	0
18.88000286	-398.5627056	4.880985417e-14	0	0	0	0	0	0	0
18.88001003	-398.5665231	4.881032168e-14	0	0	0	0	0	0	0
18.88004583	-398.585583	4.881265583e-14	0	0	0	0	0	0	0
18.88022487	-398.6808796	4.882432631e-14	0	0	0	0	0	0	0
18.88078517	-398.9788505	4.886081722e-14	0	0	0	0	0	0	0
18.88134548	-399.2764371	4.889726107e-14	0	0	0	0	0	0	0
18.88218067	-399.7192917	4.895149512e-14	0	0	0	0	0	0	0
18.88301586	-400.1612792	4.900562297e-14	0	0	0	0	0	0	0
18.88385104	-400.6023932	4.905964386e-14	0	0	0	0	0	0	0
18.88451929	-400.9547146	4.910279079e-14	0	0	0	0	0	0	0
18.88518753	-401.3064739	4.914586888e-14	0	0	0	0	0	0	0
18.88585578	-401.6576811	4.918887935e-14	0	0	0	0	0	0	0
18.88652402	-402.0083252	4.923182087e-14	0	0	0	0	0	0	0
18.88719227	-402.3584163	4.927469466e-14	0	0	0	0	0	0	0
18.88786052	-402.7079485	4.931750001e-14	0	0	0	0	0	0	0
18.88852876	-403.0569162	4.936023623e-14	0	0	0	0	0	0	0
18.88919701	-403.4053293	4.940290453e-14	0	0	0	0	0	0	0
18.89	-403.8232522	4.945408533e-14	0	0	0	0	0	0	0
18.89000135	-403.8239542	4.945417129e-14	0	0	0	0	0	0	0
18.89000269	-403.8246509	4.945425661e-14	0	0	0	0	0	0	0
18.89000942	-403.8281501	4.945468515e-14	0	0	0	0	0	0	0
18.89004304	-403.8456299	4.94568258e-14	0	0	0	0	0	0	0
18.89021119	-403.9330334	4.946752964e-14	0	0	0	0	0	0	0
18.89105189	-404.3694919	4.952098039e-14	0	0	0	0	0	0	0
18.8918926	-404.8050667	4.957432292e-14	0	0	0	0	0	0	0
18.89278195	-405.2648735	4.963063301e-14	0	0	0	0	0	0	0
18.8936713	-405.7236833	4.968682101e-14	0	0	0	0	0	0	0
18.89440722	-406.1025851	4.973322309e-14	0	0	0	0	0	0	0
18.89514314	-406.4808028	4.97795414e-14	0	0	0	0	0	0	0
18.89587906	-406.8583358	4.982577587e-14	0	0	0	0	0	0	0
18.89661497	-407.2351785	4.987192578e-14	0	0	0	0	0	0	0
18.8971524	-407.5099507	4.990557567e-14	0	0	0	0	0	0	0
18.89768982	-407.7843518	4.993918011e-14	0	0	0	0	0	0	0
18.89819639	-408.0426658	4.997081446e-14	0	0	0	0	0	0	0
18.89870296	-408.3006542	5.000240892e-14	0	0	0	0	0	0	0
18.89936894	-408.6393318	5.004388497e-14	0	0	0	0	0	0	0
18.9	-408.959731	5.008312256e-14	0	0	0	0	0	0	0
18.90000136	-408.960421	5.008320705e-14	0	0	0	0	0	0	0
18.90000272	-408.9611109	5.008329155e-14	0	0	0	0	0	0	0
18.90000952	-408.9645606	5.008371401e-14	0	0	0	0	0	0	0
18.90004351	-408.9818031	5.008582561e-14	0	0	0	0	0	0	0
18.90021347	-409.0679985	5.00963815e-14	0	0	0	0	0	0	0
18.90106326	-409.4984193	5.014909284e-14	0	0	0	0	0	0	0
18.90191304	-409.9279152	5.020169093e-14	0	0	0	0	0	0	0
18.90276283	-410.3564956	5.025417688e-14	0	0	0	0	0	0	0
18.90352562	-410.7404137	5.030119329e-14	0	0	0	0	0	0	0
18.90428841	-411.1235886	5.034811868e-14	0	0	0	0	0	0	0
18.90505119	-411.5060145	5.039495234e-14	0	0	0	0	0	0	0
18.90581398	-411.8877007	5.044169542e-14	0	0	0	0	0	0	0
18.90657677	-412.2686415	5.048834722e-14	0	0	0	0	0	0	0
18.90733955	-412.6488314	5.053490705e-14	0	0	0	0	0	0	0
18.90810234	-413.0282795	5.058137604e-14	0	0	0	0	0	0	0
18.90886513	-413.4069801	5.06277535e-14	0	0	0	0	0	0	0
18.90962791	-413.7849277	5.067403873e-14	0	0	0	0	0	0	0
18.91	-413.9690218	5.069658375e-14	0	0	0	0	0	0	0
18.91000153	-413.9697784	5.069667641e-14	0	0	0	0	0	0	0
18.91000307	-413.97054	5.069676968e-14	0	0	0	0	0	0	0
18.91001074	-413.9743329	5.069723417e-14	0	0	0	0	0	0	0
18.91004908	-413.9932912	5.069955589e-14	0	0	0	0	0	0	0
18.91024079	-414.0880594	5.071116165e-14	0	0	0	0	0	0	0
18.9111138	-414.5190164	5.076393866e-14	0	0	0	0	0	0	0
18.91198681	-414.9489908	5.081659535e-14	0	0	0	0	0	0	0
18.91285982	-415.3779817	5.086913158e-14	0	0	0	0	0	0	0
18.91362731	-415.7543076	5.09152182e-14	0	0	0	0	0	0	0
18.9143948	-416.1298718	5.096121155e-14	0	0	0	0	0	0	0
18.91516229	-416.5046737	5.100711154e-14	0	0	0	0	0	0	0
18.91592978	-416.8787125	5.105291809e-14	0	0	0	0	0	0	0
18.91669727	-417.2519876	5.109863111e-14	0	0	0	0	0	0	0
18.91746476	-417.6244983	5.114425051e-14	0	0	0	0	0	0	0
18.91794588	-417.8576258	5.117280039e-14	0	0	0	0	0	0	0
18.918427	-418.0904524	5.120131342e-14	0	0	0	0	0	0	0
18.91890812	-418.322978	5.12297896e-14	0	0	0	0	0	0	0
18.91963273	-418.672614	5.127260767e-14	0	0	0	0	0	0	0
18.92	-418.8495667	5.129427812e-14	0	0	0	0	0	0	0
18.92000149	-418.8502843	5.129436599e-14	0	0	0	0	0	0	0
18.92000299	-418.8510066	5.129445446e-14	0	0	0	0	0	0	0
18.92001045	-418.854599	5.12948944e-14	0	0	0	0	0	0	0
18.92004779	-418.8725793	5.129709635e-14	0	0	0	0	0	0	0
18.92023448	-418.9624486	5.130810216e-14	0	0	0	0	0	0	0
18.92062539	-419.1504787	5.13311292e-14	0	0	0	0	0	0	0
18.92117422	-419.414133	5.136341755e-14	0	0	0	0	0	0	0
18.9218706	-419.7481038	5.140431718e-14	0	0	0	0	0	0	0
18.92267336	-420.132307	5.145136849e-14	0	0	0	0	0	0	0
18.92347613	-420.5156728	5.149831727e-14	0	0	0	0	0	0	0
18.9242789	-420.8981958	5.154516283e-14	0	0	0	0	0	0	0
18.92508166	-421.2798705	5.159190449e-14	0	0	0	0	0	0	0
18.92588443	-421.6607055	5.163854334e-14	0	0	0	0	0	0	0
18.92668719	-422.0406908	5.16850781e-14	0	0	0	0	0	0	0
18.92748996	-422.4198348	5.173150986e-14	0	0	0	0	0	0	0
18.92829273	-422.7981322	5.177783793e-14	0	0	0	0	0	0	0
18.92909549	-423.1755775	5.182406165e-14	0	0	0	0	0	0	0
18.92964979	-423.4357058	5.185591818e-14	0	0	0	0	0	0	0
18.93	-423.5998479	5.187601978e-14	0	0	0	0	0	0	0
18.93000231	-423.60093	5.18761523e-14	0	0	0	0	0	0	0
18.93000461	-423.6020075	5.187628426e-14	0	0	0	0	0	0	0
18.93001614	-423.6074087	5.187694572e-14	0	0	0	0	0	0	0
18.9300738	-423.634417	5.188025328e-14	0	0	0	0	0	0	0
